<mxfile host="Electron" agent="Mozilla/5.0 (Windows NT 10.0; Win64; x64) AppleWebKit/537.36 (KHTML, like Gecko) draw.io/24.7.8 Chrome/128.0.6613.36 Electron/32.0.1 Safari/537.36" version="24.7.8">
  <diagram name="Page-1" id="eyhmsktSKnQVDQ7o_pOd">
    <mxGraphModel dx="988" dy="573" grid="1" gridSize="10" guides="1" tooltips="1" connect="1" arrows="1" fold="1" page="1" pageScale="1" pageWidth="2339" pageHeight="3300" math="0" shadow="0">
      <root>
        <mxCell id="0" />
        <mxCell id="1" parent="0" />
        <mxCell id="b4HoL-fDRw1IoccWwdPi-1" value="" style="endArrow=classic;html=1;rounded=0;" parent="1" edge="1">
          <mxGeometry width="50" height="50" relative="1" as="geometry">
            <mxPoint x="80" y="280" as="sourcePoint" />
            <mxPoint x="380" y="280" as="targetPoint" />
          </mxGeometry>
        </mxCell>
        <mxCell id="b4HoL-fDRw1IoccWwdPi-2" value="" style="endArrow=classic;html=1;rounded=0;" parent="1" edge="1">
          <mxGeometry width="50" height="50" relative="1" as="geometry">
            <mxPoint x="80" y="280" as="sourcePoint" />
            <mxPoint x="80" y="200" as="targetPoint" />
          </mxGeometry>
        </mxCell>
        <mxCell id="b4HoL-fDRw1IoccWwdPi-4" value="" style="endArrow=classic;html=1;rounded=0;" parent="1" edge="1">
          <mxGeometry width="50" height="50" relative="1" as="geometry">
            <mxPoint x="80" y="400" as="sourcePoint" />
            <mxPoint x="380" y="400" as="targetPoint" />
          </mxGeometry>
        </mxCell>
        <mxCell id="b4HoL-fDRw1IoccWwdPi-5" value="" style="endArrow=classic;html=1;rounded=0;" parent="1" edge="1">
          <mxGeometry width="50" height="50" relative="1" as="geometry">
            <mxPoint x="80" y="400" as="sourcePoint" />
            <mxPoint x="80" y="320" as="targetPoint" />
          </mxGeometry>
        </mxCell>
        <mxCell id="b4HoL-fDRw1IoccWwdPi-6" value="" style="endArrow=none;html=1;rounded=0;fillColor=#f8cecc;strokeColor=#b85450;" parent="1" edge="1">
          <mxGeometry width="50" height="50" relative="1" as="geometry">
            <mxPoint x="80" y="270" as="sourcePoint" />
            <mxPoint x="160" y="270" as="targetPoint" />
          </mxGeometry>
        </mxCell>
        <mxCell id="b4HoL-fDRw1IoccWwdPi-7" value="&lt;font face=&quot;Courier New&quot;&gt;INPUT&lt;/font&gt;" style="text;html=1;align=center;verticalAlign=middle;whiteSpace=wrap;rounded=0;" parent="1" vertex="1">
          <mxGeometry x="40" y="180" width="80" height="20" as="geometry" />
        </mxCell>
        <mxCell id="b4HoL-fDRw1IoccWwdPi-9" value="&lt;font face=&quot;Courier New&quot;&gt;LOW&lt;/font&gt;" style="text;html=1;align=center;verticalAlign=middle;whiteSpace=wrap;rounded=0;" parent="1" vertex="1">
          <mxGeometry x="40" y="260" width="40" height="20" as="geometry" />
        </mxCell>
        <mxCell id="b4HoL-fDRw1IoccWwdPi-10" value="&lt;font face=&quot;Courier New&quot;&gt;OUTPUT&lt;/font&gt;" style="text;html=1;align=center;verticalAlign=middle;whiteSpace=wrap;rounded=0;" parent="1" vertex="1">
          <mxGeometry x="40" y="300" width="80" height="20" as="geometry" />
        </mxCell>
        <mxCell id="b4HoL-fDRw1IoccWwdPi-11" value="" style="endArrow=none;html=1;rounded=0;fillColor=#f8cecc;strokeColor=#b85450;" parent="1" edge="1">
          <mxGeometry width="50" height="50" relative="1" as="geometry">
            <mxPoint x="160" y="230" as="sourcePoint" />
            <mxPoint x="240" y="230" as="targetPoint" />
          </mxGeometry>
        </mxCell>
        <mxCell id="b4HoL-fDRw1IoccWwdPi-12" value="" style="endArrow=none;html=1;rounded=0;fillColor=#f8cecc;strokeColor=#b85450;" parent="1" edge="1">
          <mxGeometry width="50" height="50" relative="1" as="geometry">
            <mxPoint x="240" y="269.67" as="sourcePoint" />
            <mxPoint x="280" y="270" as="targetPoint" />
          </mxGeometry>
        </mxCell>
        <mxCell id="b4HoL-fDRw1IoccWwdPi-14" value="" style="endArrow=none;html=1;rounded=0;fillColor=#f8cecc;strokeColor=#b85450;" parent="1" edge="1">
          <mxGeometry width="50" height="50" relative="1" as="geometry">
            <mxPoint x="80" y="390" as="sourcePoint" />
            <mxPoint x="160" y="390" as="targetPoint" />
          </mxGeometry>
        </mxCell>
        <mxCell id="b4HoL-fDRw1IoccWwdPi-15" value="" style="endArrow=none;html=1;rounded=0;fillColor=#f8cecc;strokeColor=#b85450;" parent="1" edge="1">
          <mxGeometry width="50" height="50" relative="1" as="geometry">
            <mxPoint x="160" y="349.83" as="sourcePoint" />
            <mxPoint x="170" y="350" as="targetPoint" />
          </mxGeometry>
        </mxCell>
        <mxCell id="b4HoL-fDRw1IoccWwdPi-16" value="" style="endArrow=none;html=1;rounded=0;fillColor=#f8cecc;strokeColor=#b85450;" parent="1" edge="1">
          <mxGeometry width="50" height="50" relative="1" as="geometry">
            <mxPoint x="310" y="390" as="sourcePoint" />
            <mxPoint x="360" y="390" as="targetPoint" />
          </mxGeometry>
        </mxCell>
        <mxCell id="b4HoL-fDRw1IoccWwdPi-17" value="&lt;font face=&quot;Courier New&quot;&gt;HIGH&lt;/font&gt;" style="text;html=1;align=center;verticalAlign=middle;whiteSpace=wrap;rounded=0;" parent="1" vertex="1">
          <mxGeometry x="40" y="220" width="40" height="20" as="geometry" />
        </mxCell>
        <mxCell id="b4HoL-fDRw1IoccWwdPi-18" value="&lt;font face=&quot;Courier New&quot;&gt;LOW&lt;/font&gt;" style="text;html=1;align=center;verticalAlign=middle;whiteSpace=wrap;rounded=0;" parent="1" vertex="1">
          <mxGeometry x="40" y="380" width="40" height="20" as="geometry" />
        </mxCell>
        <mxCell id="b4HoL-fDRw1IoccWwdPi-19" value="" style="endArrow=none;html=1;rounded=0;fillColor=#f8cecc;strokeColor=#b85450;" parent="1" edge="1">
          <mxGeometry width="50" height="50" relative="1" as="geometry">
            <mxPoint x="160" y="270" as="sourcePoint" />
            <mxPoint x="160" y="230" as="targetPoint" />
          </mxGeometry>
        </mxCell>
        <mxCell id="b4HoL-fDRw1IoccWwdPi-20" value="" style="endArrow=none;html=1;rounded=0;fillColor=#f8cecc;strokeColor=#b85450;" parent="1" edge="1">
          <mxGeometry width="50" height="50" relative="1" as="geometry">
            <mxPoint x="240" y="270" as="sourcePoint" />
            <mxPoint x="240" y="230" as="targetPoint" />
          </mxGeometry>
        </mxCell>
        <mxCell id="b4HoL-fDRw1IoccWwdPi-21" value="" style="endArrow=none;html=1;rounded=0;fillColor=#f8cecc;strokeColor=#b85450;" parent="1" edge="1">
          <mxGeometry width="50" height="50" relative="1" as="geometry">
            <mxPoint x="160" y="390" as="sourcePoint" />
            <mxPoint x="160" y="350" as="targetPoint" />
          </mxGeometry>
        </mxCell>
        <mxCell id="b4HoL-fDRw1IoccWwdPi-22" value="" style="endArrow=none;html=1;rounded=0;fillColor=#f8cecc;strokeColor=#b85450;" parent="1" edge="1">
          <mxGeometry width="50" height="50" relative="1" as="geometry">
            <mxPoint x="170" y="390" as="sourcePoint" />
            <mxPoint x="170" y="350" as="targetPoint" />
          </mxGeometry>
        </mxCell>
        <mxCell id="b4HoL-fDRw1IoccWwdPi-29" value="&lt;font face=&quot;Courier New&quot;&gt;Time&lt;/font&gt;" style="text;html=1;align=center;verticalAlign=middle;whiteSpace=wrap;rounded=0;" parent="1" vertex="1">
          <mxGeometry x="380" y="270" width="50" height="20" as="geometry" />
        </mxCell>
        <mxCell id="b4HoL-fDRw1IoccWwdPi-30" value="&lt;font face=&quot;Courier New&quot;&gt;Time&lt;/font&gt;" style="text;html=1;align=center;verticalAlign=middle;whiteSpace=wrap;rounded=0;" parent="1" vertex="1">
          <mxGeometry x="380" y="390" width="50" height="20" as="geometry" />
        </mxCell>
        <mxCell id="b4HoL-fDRw1IoccWwdPi-31" value="" style="endArrow=none;html=1;rounded=0;fillColor=#f8cecc;strokeColor=#b85450;" parent="1" edge="1">
          <mxGeometry width="50" height="50" relative="1" as="geometry">
            <mxPoint x="280" y="229.83" as="sourcePoint" />
            <mxPoint x="290" y="230" as="targetPoint" />
          </mxGeometry>
        </mxCell>
        <mxCell id="b4HoL-fDRw1IoccWwdPi-32" value="" style="endArrow=none;html=1;rounded=0;fillColor=#f8cecc;strokeColor=#b85450;" parent="1" edge="1">
          <mxGeometry width="50" height="50" relative="1" as="geometry">
            <mxPoint x="280" y="270" as="sourcePoint" />
            <mxPoint x="280" y="230" as="targetPoint" />
          </mxGeometry>
        </mxCell>
        <mxCell id="b4HoL-fDRw1IoccWwdPi-34" value="" style="endArrow=none;html=1;rounded=0;fillColor=#f8cecc;strokeColor=#b85450;" parent="1" edge="1">
          <mxGeometry width="50" height="50" relative="1" as="geometry">
            <mxPoint x="300" y="229.83" as="sourcePoint" />
            <mxPoint x="320" y="230" as="targetPoint" />
          </mxGeometry>
        </mxCell>
        <mxCell id="b4HoL-fDRw1IoccWwdPi-35" value="" style="endArrow=none;html=1;rounded=0;fillColor=#f8cecc;strokeColor=#b85450;" parent="1" edge="1">
          <mxGeometry width="50" height="50" relative="1" as="geometry">
            <mxPoint x="300" y="270" as="sourcePoint" />
            <mxPoint x="300" y="230" as="targetPoint" />
          </mxGeometry>
        </mxCell>
        <mxCell id="b4HoL-fDRw1IoccWwdPi-36" value="" style="endArrow=none;html=1;rounded=0;fillColor=#f8cecc;strokeColor=#b85450;" parent="1" edge="1">
          <mxGeometry width="50" height="50" relative="1" as="geometry">
            <mxPoint x="320" y="270" as="sourcePoint" />
            <mxPoint x="320" y="230" as="targetPoint" />
          </mxGeometry>
        </mxCell>
        <mxCell id="b4HoL-fDRw1IoccWwdPi-37" value="" style="endArrow=none;html=1;rounded=0;fillColor=#f8cecc;strokeColor=#b85450;" parent="1" edge="1">
          <mxGeometry width="50" height="50" relative="1" as="geometry">
            <mxPoint x="290" y="269.52" as="sourcePoint" />
            <mxPoint x="300" y="270" as="targetPoint" />
          </mxGeometry>
        </mxCell>
        <mxCell id="b4HoL-fDRw1IoccWwdPi-38" value="" style="endArrow=none;html=1;rounded=0;fillColor=#f8cecc;strokeColor=#b85450;" parent="1" edge="1">
          <mxGeometry width="50" height="50" relative="1" as="geometry">
            <mxPoint x="320" y="269.67" as="sourcePoint" />
            <mxPoint x="360" y="270" as="targetPoint" />
          </mxGeometry>
        </mxCell>
        <mxCell id="b4HoL-fDRw1IoccWwdPi-40" value="&lt;font face=&quot;Courier New&quot;&gt;HIGH&lt;/font&gt;" style="text;html=1;align=center;verticalAlign=middle;whiteSpace=wrap;rounded=0;" parent="1" vertex="1">
          <mxGeometry x="40" y="340" width="40" height="20" as="geometry" />
        </mxCell>
        <mxCell id="b1o2EIP2qgXcqxj-608d-1" value="" style="endArrow=none;html=1;rounded=0;fillColor=#f8cecc;strokeColor=#b85450;" edge="1" parent="1">
          <mxGeometry width="50" height="50" relative="1" as="geometry">
            <mxPoint x="290" y="270" as="sourcePoint" />
            <mxPoint x="290" y="230" as="targetPoint" />
          </mxGeometry>
        </mxCell>
        <mxCell id="b1o2EIP2qgXcqxj-608d-5" value="" style="endArrow=none;dashed=1;html=1;dashPattern=1 3;strokeWidth=2;rounded=0;fillColor=#f5f5f5;strokeColor=#666666;" edge="1" parent="1">
          <mxGeometry width="50" height="50" relative="1" as="geometry">
            <mxPoint x="120" y="270" as="sourcePoint" />
            <mxPoint x="120" y="150" as="targetPoint" />
          </mxGeometry>
        </mxCell>
        <mxCell id="b1o2EIP2qgXcqxj-608d-6" value="" style="endArrow=none;dashed=1;html=1;dashPattern=1 3;strokeWidth=2;rounded=0;fillColor=#f5f5f5;strokeColor=#666666;" edge="1" parent="1">
          <mxGeometry width="50" height="50" relative="1" as="geometry">
            <mxPoint x="130" y="270" as="sourcePoint" />
            <mxPoint x="130" y="150" as="targetPoint" />
          </mxGeometry>
        </mxCell>
        <mxCell id="b1o2EIP2qgXcqxj-608d-8" value="" style="endArrow=none;html=1;rounded=0;" edge="1" parent="1">
          <mxGeometry width="50" height="50" relative="1" as="geometry">
            <mxPoint x="100" y="170" as="sourcePoint" />
            <mxPoint x="240" y="170" as="targetPoint" />
          </mxGeometry>
        </mxCell>
        <mxCell id="b1o2EIP2qgXcqxj-608d-9" value="" style="endArrow=classic;html=1;rounded=0;" edge="1" parent="1">
          <mxGeometry width="50" height="50" relative="1" as="geometry">
            <mxPoint x="100" y="170" as="sourcePoint" />
            <mxPoint x="120" y="170" as="targetPoint" />
          </mxGeometry>
        </mxCell>
        <mxCell id="b1o2EIP2qgXcqxj-608d-10" value="" style="endArrow=classic;html=1;rounded=0;" edge="1" parent="1">
          <mxGeometry width="50" height="50" relative="1" as="geometry">
            <mxPoint x="150" y="170" as="sourcePoint" />
            <mxPoint x="130" y="170" as="targetPoint" />
          </mxGeometry>
        </mxCell>
        <mxCell id="b1o2EIP2qgXcqxj-608d-12" value="&lt;font face=&quot;Courier New&quot;&gt;One iteration&lt;/font&gt;&lt;div&gt;&lt;font face=&quot;Courier New&quot;&gt;of loop()&lt;/font&gt;&lt;/div&gt;" style="text;html=1;align=center;verticalAlign=middle;whiteSpace=wrap;rounded=0;" vertex="1" parent="1">
          <mxGeometry x="140" y="130" width="100" height="40" as="geometry" />
        </mxCell>
        <mxCell id="b1o2EIP2qgXcqxj-608d-14" value="" style="endArrow=none;html=1;rounded=0;fillColor=#f8cecc;strokeColor=#b85450;" edge="1" parent="1">
          <mxGeometry width="50" height="50" relative="1" as="geometry">
            <mxPoint x="280" y="349.83" as="sourcePoint" />
            <mxPoint x="290" y="350" as="targetPoint" />
          </mxGeometry>
        </mxCell>
        <mxCell id="b1o2EIP2qgXcqxj-608d-15" value="" style="endArrow=none;html=1;rounded=0;fillColor=#f8cecc;strokeColor=#b85450;" edge="1" parent="1">
          <mxGeometry width="50" height="50" relative="1" as="geometry">
            <mxPoint x="280" y="390" as="sourcePoint" />
            <mxPoint x="280" y="350" as="targetPoint" />
          </mxGeometry>
        </mxCell>
        <mxCell id="b1o2EIP2qgXcqxj-608d-16" value="" style="endArrow=none;html=1;rounded=0;fillColor=#f8cecc;strokeColor=#b85450;" edge="1" parent="1">
          <mxGeometry width="50" height="50" relative="1" as="geometry">
            <mxPoint x="290" y="390" as="sourcePoint" />
            <mxPoint x="290" y="350" as="targetPoint" />
          </mxGeometry>
        </mxCell>
        <mxCell id="b1o2EIP2qgXcqxj-608d-17" value="" style="endArrow=none;html=1;rounded=0;fillColor=#f8cecc;strokeColor=#b85450;" edge="1" parent="1">
          <mxGeometry width="50" height="50" relative="1" as="geometry">
            <mxPoint x="170" y="389.66999999999996" as="sourcePoint" />
            <mxPoint x="280" y="390" as="targetPoint" />
          </mxGeometry>
        </mxCell>
        <mxCell id="b1o2EIP2qgXcqxj-608d-19" value="" style="endArrow=none;html=1;rounded=0;fillColor=#f8cecc;strokeColor=#b85450;" edge="1" parent="1">
          <mxGeometry width="50" height="50" relative="1" as="geometry">
            <mxPoint x="300" y="349.83" as="sourcePoint" />
            <mxPoint x="310" y="350" as="targetPoint" />
          </mxGeometry>
        </mxCell>
        <mxCell id="b1o2EIP2qgXcqxj-608d-20" value="" style="endArrow=none;html=1;rounded=0;fillColor=#f8cecc;strokeColor=#b85450;" edge="1" parent="1">
          <mxGeometry width="50" height="50" relative="1" as="geometry">
            <mxPoint x="300" y="390" as="sourcePoint" />
            <mxPoint x="300" y="350" as="targetPoint" />
          </mxGeometry>
        </mxCell>
        <mxCell id="b1o2EIP2qgXcqxj-608d-21" value="" style="endArrow=none;html=1;rounded=0;fillColor=#f8cecc;strokeColor=#b85450;" edge="1" parent="1">
          <mxGeometry width="50" height="50" relative="1" as="geometry">
            <mxPoint x="310" y="390" as="sourcePoint" />
            <mxPoint x="310" y="350" as="targetPoint" />
          </mxGeometry>
        </mxCell>
        <mxCell id="b1o2EIP2qgXcqxj-608d-23" value="" style="endArrow=none;html=1;rounded=0;fillColor=#f8cecc;strokeColor=#b85450;" edge="1" parent="1">
          <mxGeometry width="50" height="50" relative="1" as="geometry">
            <mxPoint x="290" y="390" as="sourcePoint" />
            <mxPoint x="300" y="390" as="targetPoint" />
          </mxGeometry>
        </mxCell>
        <mxCell id="b1o2EIP2qgXcqxj-608d-25" value="" style="endArrow=classic;html=1;rounded=0;fillColor=#f8cecc;strokeColor=#b85450;" edge="1" parent="1">
          <mxGeometry width="50" height="50" relative="1" as="geometry">
            <mxPoint x="160" y="260" as="sourcePoint" />
            <mxPoint x="160" y="240" as="targetPoint" />
            <Array as="points">
              <mxPoint x="160" y="240" />
            </Array>
          </mxGeometry>
        </mxCell>
        <mxCell id="b1o2EIP2qgXcqxj-608d-26" value="" style="endArrow=none;dashed=1;html=1;rounded=0;fillColor=#f5f5f5;strokeColor=#666666;" edge="1" parent="1">
          <mxGeometry width="50" height="50" relative="1" as="geometry">
            <mxPoint x="160" y="350" as="sourcePoint" />
            <mxPoint x="160" y="270" as="targetPoint" />
          </mxGeometry>
        </mxCell>
        <mxCell id="b1o2EIP2qgXcqxj-608d-27" value="" style="endArrow=classic;html=1;rounded=0;fillColor=#f8cecc;strokeColor=#b85450;" edge="1" parent="1">
          <mxGeometry width="50" height="50" relative="1" as="geometry">
            <mxPoint x="280" y="260" as="sourcePoint" />
            <mxPoint x="280" y="240" as="targetPoint" />
            <Array as="points">
              <mxPoint x="280" y="240" />
            </Array>
          </mxGeometry>
        </mxCell>
        <mxCell id="b1o2EIP2qgXcqxj-608d-28" value="" style="endArrow=classic;html=1;rounded=0;fillColor=#f8cecc;strokeColor=#b85450;" edge="1" parent="1">
          <mxGeometry width="50" height="50" relative="1" as="geometry">
            <mxPoint x="300" y="260" as="sourcePoint" />
            <mxPoint x="300" y="240" as="targetPoint" />
            <Array as="points">
              <mxPoint x="300" y="240" />
            </Array>
          </mxGeometry>
        </mxCell>
        <mxCell id="b1o2EIP2qgXcqxj-608d-29" value="" style="endArrow=none;dashed=1;html=1;rounded=0;fillColor=#f5f5f5;strokeColor=#666666;" edge="1" parent="1">
          <mxGeometry width="50" height="50" relative="1" as="geometry">
            <mxPoint x="280" y="350" as="sourcePoint" />
            <mxPoint x="280" y="270" as="targetPoint" />
          </mxGeometry>
        </mxCell>
        <mxCell id="b1o2EIP2qgXcqxj-608d-30" value="" style="endArrow=none;dashed=1;html=1;rounded=0;fillColor=#f5f5f5;strokeColor=#666666;" edge="1" parent="1">
          <mxGeometry width="50" height="50" relative="1" as="geometry">
            <mxPoint x="300" y="350" as="sourcePoint" />
            <mxPoint x="300" y="270" as="targetPoint" />
          </mxGeometry>
        </mxCell>
        <mxCell id="b1o2EIP2qgXcqxj-608d-31" value="&lt;font face=&quot;Courier New&quot;&gt;Signal only HIGH for the first call of exec()&lt;/font&gt;" style="text;html=1;align=center;verticalAlign=middle;whiteSpace=wrap;rounded=0;" vertex="1" parent="1">
          <mxGeometry x="170" y="300" width="100" height="40" as="geometry" />
        </mxCell>
      </root>
    </mxGraphModel>
  </diagram>
</mxfile>
